<?xml version="1.0" encoding="UTF-8"?>
<!DOCTYPE svg PUBLIC "-//W3C//DTD SVG 1.1//EN" "http://www.w3.org/Graphics/SVG/1.1/DTD/svg11.dtd">
<svg xmlns="http://www.w3.org/2000/svg" version="1.1" width="512px" height="512px" style="shape-rendering:geometricPrecision; text-rendering:geometricPrecision; image-rendering:optimizeQuality; fill-rule:evenodd; clip-rule:evenodd" xmlns:xlink="http://www.w3.org/1999/xlink">
<g><path style="opacity:0.922" fill="#fefffe" d="M 162.5,-0.5 C 167.167,-0.5 171.833,-0.5 176.5,-0.5C 178.762,1.68484 180.262,4.35151 181,7.5C 181.5,36.4981 181.667,65.4981 181.5,94.5C 202.167,94.5 222.833,94.5 243.5,94.5C 243.333,65.1648 243.5,35.8314 244,6.5C 244.653,3.86077 245.82,1.52743 247.5,-0.5C 252.5,-0.5 257.5,-0.5 262.5,-0.5C 264.18,1.52743 265.347,3.86077 266,6.5C 266.5,35.8314 266.667,65.1648 266.5,94.5C 287.167,94.5 307.833,94.5 328.5,94.5C 328.333,65.4981 328.5,36.4981 329,7.5C 329.738,4.35151 331.238,1.68484 333.5,-0.5C 338.167,-0.5 342.833,-0.5 347.5,-0.5C 349.27,1.11327 350.436,3.11327 351,5.5C 351.5,35.1648 351.667,64.8315 351.5,94.5C 365.504,94.3334 379.504,94.5001 393.5,95C 399.942,95.0827 406.275,95.7493 412.5,97C 413.701,97.9025 414.535,99.0692 415,100.5C 415.5,119.83 415.667,139.164 415.5,158.5C 444.502,158.333 473.502,158.5 502.5,159C 504.167,159.333 505.833,159.667 507.5,160C 508.705,161.376 510.038,162.542 511.5,163.5C 511.5,167.5 511.5,171.5 511.5,175.5C 508.673,178.914 505.006,180.747 500.5,181C 472.169,181.5 443.835,181.667 415.5,181.5C 415.5,202.167 415.5,222.833 415.5,243.5C 444.169,243.333 472.835,243.5 501.5,244C 505.49,244.164 508.823,245.664 511.5,248.5C 511.5,252.833 511.5,257.167 511.5,261.5C 508.823,264.336 505.49,265.836 501.5,266C 472.835,266.5 444.169,266.667 415.5,266.5C 415.5,287.167 415.5,307.833 415.5,328.5C 443.835,328.333 472.169,328.5 500.5,329C 505.006,329.253 508.673,331.086 511.5,334.5C 511.5,338.5 511.5,342.5 511.5,346.5C 510.038,347.458 508.705,348.624 507.5,350C 505.833,350.333 504.167,350.667 502.5,351C 473.502,351.5 444.502,351.667 415.5,351.5C 415.736,371.519 415.236,391.519 414,411.5C 412.442,413.768 410.276,414.934 407.5,415C 388.836,415.5 370.17,415.667 351.5,415.5C 351.667,445.169 351.5,474.835 351,504.5C 350.096,507.233 348.596,509.567 346.5,511.5C 342.5,511.5 338.5,511.5 334.5,511.5C 331.67,509.157 329.837,506.157 329,502.5C 328.5,473.502 328.333,444.502 328.5,415.5C 307.833,415.5 287.167,415.5 266.5,415.5C 266.667,444.835 266.5,474.169 266,503.5C 265.262,506.648 263.762,509.315 261.5,511.5C 257.167,511.5 252.833,511.5 248.5,511.5C 246.238,509.315 244.738,506.648 244,503.5C 243.5,474.169 243.333,444.835 243.5,415.5C 222.833,415.5 202.167,415.5 181.5,415.5C 181.667,444.502 181.5,473.502 181,502.5C 180.163,506.157 178.33,509.157 175.5,511.5C 171.5,511.5 167.5,511.5 163.5,511.5C 161.404,509.567 159.904,507.233 159,504.5C 158.5,474.835 158.333,445.169 158.5,415.5C 144.496,415.667 130.496,415.5 116.5,415C 110.058,414.917 103.725,414.251 97.5,413C 96.2986,412.097 95.4652,410.931 95,409.5C 94.5,390.17 94.3334,370.836 94.5,351.5C 65.4981,351.667 36.4981,351.5 7.5,351C 4.25104,350.997 1.58437,349.83 -0.5,347.5C -0.5,342.833 -0.5,338.167 -0.5,333.5C 2.17664,330.664 5.50997,329.164 9.5,329C 37.8314,328.5 66.1647,328.333 94.5,328.5C 94.5,307.833 94.5,287.167 94.5,266.5C 65.8314,266.667 37.1647,266.5 8.5,266C 5.03654,265.883 2.03654,264.716 -0.5,262.5C -0.5,257.5 -0.5,252.5 -0.5,247.5C 2.03654,245.284 5.03654,244.117 8.5,244C 37.1647,243.5 65.8314,243.333 94.5,243.5C 94.5,222.833 94.5,202.167 94.5,181.5C 66.1647,181.667 37.8314,181.5 9.5,181C 5.50997,180.836 2.17664,179.336 -0.5,176.5C -0.5,171.833 -0.5,167.167 -0.5,162.5C 1.58437,160.17 4.25104,159.003 7.5,159C 36.4981,158.5 65.4981,158.333 94.5,158.5C 94.264,138.481 94.764,118.481 96,98.5C 97.5577,96.2324 99.7244,95.0657 102.5,95C 121.164,94.5001 139.83,94.3334 158.5,94.5C 158.333,64.8315 158.5,35.1648 159,5.5C 159.564,3.11327 160.73,1.11327 162.5,-0.5 Z M 117.5,117.5 C 209.167,117.5 300.833,117.5 392.5,117.5C 392.5,209.167 392.5,300.833 392.5,392.5C 300.833,392.5 209.167,392.5 117.5,392.5C 117.5,300.833 117.5,209.167 117.5,117.5 Z"/></g>
<g><path style="opacity:0.953" fill="#fefffe" d="M 163.5,158.5 C 222.168,158.333 280.834,158.5 339.5,159C 342.167,159.333 344.833,159.667 347.5,160C 348.333,160.833 349.167,161.667 350,162.5C 351.435,223.161 351.768,283.827 351,344.5C 350.727,346.329 349.893,347.829 348.5,349C 331.566,350.291 314.566,350.958 297.5,351C 254.167,351.667 210.833,351.667 167.5,351C 164.387,351.053 161.887,349.886 160,347.5C 158.559,286.84 158.226,226.173 159,165.5C 159.904,162.767 161.404,160.433 163.5,158.5 Z"/></g>
</svg>
