<?xml version="1.0" encoding="UTF-8"?>
<!DOCTYPE svg PUBLIC "-//W3C//DTD SVG 1.1//EN" "http://www.w3.org/Graphics/SVG/1.1/DTD/svg11.dtd">
<svg xmlns="http://www.w3.org/2000/svg" version="1.1" width="512px" height="512px" style="shape-rendering:geometricPrecision; text-rendering:geometricPrecision; image-rendering:optimizeQuality; fill-rule:evenodd; clip-rule:evenodd" xmlns:xlink="http://www.w3.org/1999/xlink">
<g><path style="opacity:0.915" fill="#fefffe" d="M 511.5,324.5 C 511.5,334.833 511.5,345.167 511.5,355.5C 498.855,407.182 465.855,434.349 412.5,437C 314.5,437.667 216.5,437.667 118.5,437C 55.4153,434.06 15.7486,402.227 -0.5,341.5C -0.5,326.5 -0.5,311.5 -0.5,296.5C 15.048,238.807 52.7147,206.64 112.5,200C 142.689,119.618 200.856,77.1182 287,72.5C 367.59,76.4681 424.257,115.135 457,188.5C 465.323,211.78 469.656,235.78 470,260.5C 492.143,276.471 505.977,297.804 511.5,324.5 Z M 279.5,95.5 C 356.862,97.2335 409.695,133.9 438,205.5C 444.472,227.352 447.472,249.685 447,272.5C 456.149,279.442 464.815,287.109 473,295.5C 492.751,324.032 493.418,353.032 475,382.5C 460.024,402.574 439.857,413.074 414.5,414C 315.167,414.667 215.833,414.667 116.5,414C 65.8478,410.276 34.6812,383.776 23,334.5C 18.1133,297.119 30.28,266.619 59.5,243C 80.722,229.191 104.055,222.191 129.5,222C 131.041,220.421 132.208,218.587 133,216.5C 155.449,144.217 204.283,103.884 279.5,95.5 Z"/></g>
</svg>
