<?xml version="1.0" encoding="UTF-8"?>
<!DOCTYPE svg PUBLIC "-//W3C//DTD SVG 1.1//EN" "http://www.w3.org/Graphics/SVG/1.1/DTD/svg11.dtd">
<svg xmlns="http://www.w3.org/2000/svg" version="1.1" width="512px" height="512px" style="shape-rendering:geometricPrecision; text-rendering:geometricPrecision; image-rendering:optimizeQuality; fill-rule:evenodd; clip-rule:evenodd" xmlns:xlink="http://www.w3.org/1999/xlink">
<g><path style="opacity:0.99" fill="#fefffe" d="M 302.5,-0.5 C 317.5,-0.5 332.5,-0.5 347.5,-0.5C 362.429,1.05056 377.429,3.05056 392.5,5.5C 393.5,32.1583 393.833,58.825 393.5,85.5C 374.12,85.0636 354.787,85.5636 335.5,87C 315.12,92.3812 303.62,105.548 301,126.5C 300.5,149.164 300.333,171.831 300.5,194.5C 330.167,194.5 359.833,194.5 389.5,194.5C 384.647,225.469 379.981,256.469 375.5,287.5C 350.5,287.5 325.5,287.5 300.5,287.5C 300.5,362.167 300.5,436.833 300.5,511.5C 266.833,511.5 233.167,511.5 199.5,511.5C 199.5,436.833 199.5,362.167 199.5,287.5C 172.167,287.5 144.833,287.5 117.5,287.5C 117.5,256.5 117.5,225.5 117.5,194.5C 144.833,194.5 172.167,194.5 199.5,194.5C 199.069,162.474 199.569,130.474 201,98.5C 210.394,40.2706 244.228,7.2706 302.5,-0.5 Z"/></g>
</svg>
