<?xml version="1.0" encoding="UTF-8"?>
<!DOCTYPE svg PUBLIC "-//W3C//DTD SVG 1.1//EN" "http://www.w3.org/Graphics/SVG/1.1/DTD/svg11.dtd">
<svg xmlns="http://www.w3.org/2000/svg" version="1.1" width="512px" height="512px" style="shape-rendering:geometricPrecision; text-rendering:geometricPrecision; image-rendering:optimizeQuality; fill-rule:evenodd; clip-rule:evenodd" xmlns:xlink="http://www.w3.org/1999/xlink">
<g><path style="opacity:0.923" fill="#fefffe" d="M 511.5,254.5 C 511.5,308.167 511.5,361.833 511.5,415.5C 508.924,418.623 505.59,420.457 501.5,421C 483.503,421.5 465.503,421.667 447.5,421.5C 445.889,444.942 433.555,458.776 410.5,463C 383.487,463.219 356.487,463.885 329.5,465C 319.207,495.657 297.873,509.49 265.5,506.5C 239.022,509.345 219.189,499.345 206,476.5C 193.803,440.033 205.303,414.533 240.5,400C 255.454,398.418 270.454,398.085 285.5,399C 308.434,403.268 323.101,416.602 329.5,439C 356.148,440.525 382.815,440.858 409.5,440C 412.661,438.587 415.661,436.92 418.5,435C 420.712,432.079 422.545,428.912 424,425.5C 424.667,339.167 424.667,252.833 424,166.5C 416.238,117.428 391.071,80.2615 348.5,55C 288.515,18.1149 227.848,17.1149 166.5,52C 121.718,77.4635 94.8849,115.63 86,166.5C 85.7054,249.17 85.0387,331.837 84,414.5C 82.1321,418.521 78.9654,420.687 74.5,421C 52.5,421.667 30.5,421.667 8.5,421C 4.92484,420.546 1.92484,419.046 -0.5,416.5C -0.5,362.167 -0.5,307.833 -0.5,253.5C 1.92484,250.954 4.92484,249.454 8.5,249C 26.4969,248.5 44.4969,248.333 62.5,248.5C 62.3334,220.165 62.5,191.831 63,163.5C 74.6743,97.4993 110.841,50.3327 171.5,22C 227.422,-2.51509 283.422,-2.51509 339.5,22C 399.55,50.7232 435.384,97.8898 447,163.5C 447.5,191.831 447.667,220.165 447.5,248.5C 465.503,248.333 483.503,248.5 501.5,249C 505.59,249.543 508.924,251.377 511.5,254.5 Z M 21.5,271.5 C 35.1667,271.5 48.8333,271.5 62.5,271.5C 62.5,313.833 62.5,356.167 62.5,398.5C 48.8333,398.5 35.1667,398.5 21.5,398.5C 21.5,356.167 21.5,313.833 21.5,271.5 Z M 447.5,271.5 C 461.167,271.5 474.833,271.5 488.5,271.5C 488.5,313.833 488.5,356.167 488.5,398.5C 474.833,398.5 461.167,398.5 447.5,398.5C 447.5,356.167 447.5,313.833 447.5,271.5 Z M 247.5,421.5 C 259.171,421.333 270.838,421.5 282.5,422C 297.651,426.294 305.984,436.294 307.5,452C 305.912,468.871 296.912,479.204 280.5,483C 270.5,483.667 260.5,483.667 250.5,483C 229.084,477.002 220.917,463.169 226,441.5C 230.825,432.17 237.992,425.504 247.5,421.5 Z"/></g>
</svg>
