<?xml version="1.0" encoding="UTF-8"?>
<!DOCTYPE svg PUBLIC "-//W3C//DTD SVG 1.1//EN" "http://www.w3.org/Graphics/SVG/1.1/DTD/svg11.dtd">
<svg xmlns="http://www.w3.org/2000/svg" version="1.1" width="512px" height="512px" style="shape-rendering:geometricPrecision; text-rendering:geometricPrecision; image-rendering:optimizeQuality; fill-rule:evenodd; clip-rule:evenodd" xmlns:xlink="http://www.w3.org/1999/xlink">
<g><path style="opacity:0.952" fill="#fefffe" d="M 151.5,46.5 C 201.501,46.3333 251.501,46.5 301.5,47C 323.536,47.067 345.536,47.7337 367.5,49C 410.711,59.876 440.545,86.0426 457,127.5C 460.105,136.255 462.105,145.255 463,154.5C 463.667,221.5 463.667,288.5 463,355.5C 454.258,406.831 425.424,441.331 376.5,459C 368.352,461.496 360.019,462.83 351.5,463C 283.814,463.965 216.147,463.632 148.5,462C 102.638,452.323 70.8048,425.823 53,382.5C 49.8946,373.745 47.8946,364.745 47,355.5C 46.3333,288.5 46.3333,221.5 47,154.5C 57.3414,94.6605 92.1747,58.6605 151.5,46.5 Z M 163.5,79.5 C 226.84,79.2447 290.173,79.7447 353.5,81C 400.95,92.1137 426.45,121.947 430,170.5C 430.756,231.506 430.423,292.506 429,353.5C 418.152,400.018 388.985,425.518 341.5,430C 279.827,430.779 218.16,430.446 156.5,429C 109.05,417.886 83.5502,388.053 80,339.5C 79.3333,283.167 79.3333,226.833 80,170.5C 81.7724,131.42 100.272,103.586 135.5,87C 144.704,83.5344 154.038,81.0344 163.5,79.5 Z"/></g>
<g><path style="opacity:0.866" fill="#fefffe" d="M 367.5,120.5 C 383.313,119.479 390.479,126.812 389,142.5C 383.971,154.091 375.471,157.591 363.5,153C 353.616,143.946 352.949,134.279 361.5,124C 363.432,122.541 365.432,121.375 367.5,120.5 Z"/></g>
<g><path style="opacity:0.96" fill="#fefffe" d="M 243.5,152.5 C 291.787,150.548 326.953,170.882 349,213.5C 365.367,257.334 357.533,296.168 325.5,330C 293.817,356.736 258.15,363.736 218.5,351C 166.596,326.695 145.762,286.195 156,229.5C 168.854,185.175 198.021,159.509 243.5,152.5 Z"/></g>
</svg>
