<?xml version="1.0" encoding="UTF-8"?>
<!DOCTYPE svg PUBLIC "-//W3C//DTD SVG 1.1//EN" "http://www.w3.org/Graphics/SVG/1.1/DTD/svg11.dtd">
<svg xmlns="http://www.w3.org/2000/svg" version="1.1" width="512px" height="512px" style="shape-rendering:geometricPrecision; text-rendering:geometricPrecision; image-rendering:optimizeQuality; fill-rule:evenodd; clip-rule:evenodd" xmlns:xlink="http://www.w3.org/1999/xlink">
<g><path style="opacity:0.933" fill="#fefffe" d="M 511.5,58.5 C 511.5,161.167 511.5,263.833 511.5,366.5C 507.016,379.816 498.016,388.649 484.5,393C 427.517,394.125 370.517,394.959 313.5,395.5C 317.45,415.252 321.784,434.919 326.5,454.5C 333.037,456.21 339.704,457.377 346.5,458C 352.666,464.458 352.999,471.125 347.5,478C 345.5,478.333 343.5,478.667 341.5,479C 281.802,479.977 222.135,479.643 162.5,478C 158.224,473.108 157.39,467.608 160,461.5C 161.731,459.383 163.898,457.883 166.5,457C 171.635,457.08 176.469,456.247 181,454.5C 184.977,434.781 189.144,415.114 193.5,395.5C 137.483,394.958 81.4829,394.124 25.5,393C 13.1406,389.136 4.47397,381.302 -0.5,369.5C -0.5,264.833 -0.5,160.167 -0.5,55.5C 6.77594,39.0705 19.4426,30.9038 37.5,31C 182.167,30.3333 326.833,30.3333 471.5,31C 491.288,30.9787 504.622,40.1454 511.5,58.5 Z M 31.5,53.5 C 179.834,53.3333 328.167,53.5 476.5,54C 485.403,56.9708 489.403,63.1375 488.5,72.5C 332.833,72.5 177.167,72.5 21.5,72.5C 20.9026,64.0254 24.236,57.6921 31.5,53.5 Z M 21.5,95.5 C 177.167,95.5 332.833,95.5 488.5,95.5C 488.5,166.167 488.5,236.833 488.5,307.5C 332.833,307.5 177.167,307.5 21.5,307.5C 21.5,236.833 21.5,166.167 21.5,95.5 Z M 21.5,330.5 C 177.167,330.5 332.833,330.5 488.5,330.5C 488.666,340.172 488.5,349.839 488,359.5C 486.092,365.74 481.925,369.573 475.5,371C 328.5,371.667 181.5,371.667 34.5,371C 28.0747,369.573 23.9081,365.74 22,359.5C 21.5002,349.839 21.3335,340.172 21.5,330.5 Z M 217.5,394.5 C 241.509,394.167 265.509,394.5 289.5,395.5C 293.833,415.5 298.167,435.5 302.5,455.5C 269.833,456.833 237.167,456.833 204.5,455.5C 208.707,435.131 213.04,414.797 217.5,394.5 Z"/></g>
</svg>
