<?xml version="1.0" encoding="UTF-8"?>
<!DOCTYPE svg PUBLIC "-//W3C//DTD SVG 1.1//EN" "http://www.w3.org/Graphics/SVG/1.1/DTD/svg11.dtd">
<svg xmlns="http://www.w3.org/2000/svg" version="1.1" width="512px" height="512px" style="shape-rendering:geometricPrecision; text-rendering:geometricPrecision; image-rendering:optimizeQuality; fill-rule:evenodd; clip-rule:evenodd" xmlns:xlink="http://www.w3.org/1999/xlink">
<g><path style="opacity:0.923" fill="#fefffe" d="M 203.5,3.5 C 207.582,3.34355 211.582,3.84355 215.5,5C 218.563,9.06887 221.23,13.4022 223.5,18C 234.769,22.6333 245.436,28.3 255.5,35C 261.946,40.7248 265.613,47.8914 266.5,56.5C 327.339,51.3314 372.839,74.9981 403,127.5C 409.176,140.869 413.176,154.869 415,169.5C 415.667,233.833 415.667,298.167 415,362.5C 405.271,430.549 368.105,476.049 303.5,499C 247.303,515.027 196.303,505.027 150.5,469C 121.05,442.946 102.884,410.446 96,371.5C 94.5645,304.172 94.2311,236.839 95,169.5C 103.075,115.435 132.908,79.6014 184.5,62C 203.265,57.7794 222.265,55.4461 241.5,55C 240.167,53.6667 238.833,52.3333 237.5,51C 228.378,46.9392 219.378,42.6058 210.5,38C 200.172,31.697 196.005,22.5304 198,10.5C 199.666,8.00432 201.5,5.67098 203.5,3.5 Z M 271.5,78.5 C 311.659,76.5105 344.826,90.5105 371,120.5C 384.838,139.512 392.004,160.845 392.5,184.5C 357.5,184.5 322.5,184.5 287.5,184.5C 287.667,172.495 287.5,160.495 287,148.5C 285.74,145.572 283.573,143.739 280.5,143C 275.845,142.501 271.179,142.334 266.5,142.5C 266.5,121.5 266.5,100.5 266.5,79.5C 268.415,79.7845 270.081,79.4511 271.5,78.5 Z M 213.5,79.5 C 223.5,79.5 233.5,79.5 243.5,79.5C 243.5,100.5 243.5,121.5 243.5,142.5C 238.821,142.334 234.155,142.501 229.5,143C 227.152,143.346 225.319,144.513 224,146.5C 222.708,159.131 222.208,171.798 222.5,184.5C 187.5,184.5 152.5,184.5 117.5,184.5C 122.364,124.637 154.364,89.6374 213.5,79.5 Z M 245.5,165.5 C 251.833,165.5 258.167,165.5 264.5,165.5C 264.5,186.167 264.5,206.833 264.5,227.5C 258.167,227.5 251.833,227.5 245.5,227.5C 245.5,206.833 245.5,186.167 245.5,165.5 Z M 117.5,207.5 C 152.5,207.5 187.5,207.5 222.5,207.5C 222.038,220.599 222.538,233.599 224,246.5C 225.8,248.317 227.966,249.484 230.5,250C 246.833,250.667 263.167,250.667 279.5,250C 282.196,249.31 284.363,247.81 286,245.5C 287.461,232.933 287.961,220.266 287.5,207.5C 322.5,207.5 357.5,207.5 392.5,207.5C 392.667,257.834 392.5,308.168 392,358.5C 383.39,416.771 351.557,456.271 296.5,477C 230.089,493.518 177.255,474.018 138,418.5C 127.355,400.567 120.689,381.234 118,360.5C 117.5,309.501 117.333,258.501 117.5,207.5 Z"/></g>
</svg>
