<?xml version="1.0" encoding="UTF-8"?>
<!DOCTYPE svg PUBLIC "-//W3C//DTD SVG 1.1//EN" "http://www.w3.org/Graphics/SVG/1.1/DTD/svg11.dtd">
<svg xmlns="http://www.w3.org/2000/svg" version="1.1" width="512px" height="512px" style="shape-rendering:geometricPrecision; text-rendering:geometricPrecision; image-rendering:optimizeQuality; fill-rule:evenodd; clip-rule:evenodd" xmlns:xlink="http://www.w3.org/1999/xlink">
<g><path style="opacity:0.93" fill="#fefffe" d="M 109.5,-0.5 C 206.5,-0.5 303.5,-0.5 400.5,-0.5C 402.762,1.68484 404.262,4.35151 405,7.5C 405.5,47.1653 405.667,86.8319 405.5,126.5C 430.836,126.333 456.169,126.5 481.5,127C 485.142,126.712 487.642,128.212 489,131.5C 490.656,198.443 490.99,265.443 490,332.5C 488.655,338.598 484.821,341.431 478.5,341C 446.835,341.5 415.168,341.667 383.5,341.5C 383.667,395.834 383.5,450.168 383,504.5C 382.096,507.233 380.596,509.567 378.5,511.5C 321.833,511.5 265.167,511.5 208.5,511.5C 188.358,494.198 168.024,477.031 147.5,460C 140.311,453.81 133.478,447.31 127,440.5C 126.5,407.502 126.333,374.502 126.5,341.5C 94.8316,341.667 63.1649,341.5 31.5,341C 25.1786,341.431 21.3453,338.598 20,332.5C 19.0104,265.443 19.3437,198.443 21,131.5C 22.3582,128.212 24.8582,126.712 28.5,127C 53.8311,126.5 79.1645,126.333 104.5,126.5C 104.333,86.8319 104.5,47.1653 105,7.5C 105.738,4.35151 107.238,1.68484 109.5,-0.5 Z M 127.5,21.5 C 212.5,21.5 297.5,21.5 382.5,21.5C 382.5,56.5 382.5,91.5 382.5,126.5C 297.5,126.5 212.5,126.5 127.5,126.5C 127.5,91.5 127.5,56.5 127.5,21.5 Z M 42.5,149.5 C 184.167,149.5 325.833,149.5 467.5,149.5C 467.5,205.833 467.5,262.167 467.5,318.5C 439.5,318.5 411.5,318.5 383.5,318.5C 383.5,290.5 383.5,262.5 383.5,234.5C 395.171,234.667 406.838,234.5 418.5,234C 421.196,233.31 423.363,231.81 425,229.5C 426.427,211.854 426.76,194.187 426,176.5C 425.208,174.413 424.041,172.579 422.5,171C 418.619,169.81 414.619,169.143 410.5,169C 306.833,168.333 203.167,168.333 99.5,169C 95.3808,169.143 91.3808,169.81 87.5,171C 85.9588,172.579 84.7922,174.413 84,176.5C 83.2398,194.187 83.5732,211.854 85,229.5C 86.6374,231.81 88.804,233.31 91.5,234C 103.162,234.5 114.829,234.667 126.5,234.5C 126.5,262.5 126.5,290.5 126.5,318.5C 98.5,318.5 70.5,318.5 42.5,318.5C 42.5,262.167 42.5,205.833 42.5,149.5 Z M 106.5,191.5 C 205.5,191.5 304.5,191.5 403.5,191.5C 403.5,198.167 403.5,204.833 403.5,211.5C 304.5,211.5 205.5,211.5 106.5,211.5C 106.5,204.833 106.5,198.167 106.5,191.5 Z M 149.5,234.5 C 219.833,234.5 290.167,234.5 360.5,234.5C 360.5,319.167 360.5,403.833 360.5,488.5C 318.5,488.5 276.5,488.5 234.5,488.5C 234.667,469.83 234.5,451.164 234,432.5C 232.103,427.129 228.27,424.629 222.5,425C 198.169,424.5 173.836,424.333 149.5,424.5C 149.5,361.167 149.5,297.833 149.5,234.5 Z M 177.5,447.5 C 188.833,447.5 200.167,447.5 211.5,447.5C 211.856,458.881 211.356,470.215 210,481.5C 197.167,470.667 184.333,459.833 171.5,449C 173.708,448.809 175.708,448.309 177.5,447.5 Z"/></g>
<g><path style="opacity:0.906" fill="#fefffe" d="M 185.5,275.5 C 229.835,275.333 274.168,275.5 318.5,276C 329.484,277.116 332.984,282.949 329,293.5C 327.066,296.688 324.232,298.188 320.5,298C 276.833,298.667 233.167,298.667 189.5,298C 179.897,295.625 177.063,289.792 181,280.5C 182.707,278.963 184.207,277.296 185.5,275.5 Z"/></g>
<g><path style="opacity:0.907" fill="#fefffe" d="M 185.5,318.5 C 230.168,318.333 274.835,318.5 319.5,319C 329.57,320.792 332.737,326.625 329,336.5C 326.552,339.473 323.386,340.973 319.5,341C 276.5,341.667 233.5,341.667 190.5,341C 180.679,338.861 177.512,333.028 181,323.5C 182.634,321.938 184.134,320.271 185.5,318.5 Z"/></g>
<g><path style="opacity:0.906" fill="#fefffe" d="M 186.5,360.5 C 230.501,360.333 274.501,360.5 318.5,361C 330.043,363.253 333.209,369.753 328,380.5C 326.055,381.863 323.888,382.697 321.5,383C 277.167,383.667 232.833,383.667 188.5,383C 182.599,381.761 179.599,378.095 179.5,372C 179.631,369.747 180.131,367.581 181,365.5C 182.812,363.7 184.645,362.033 186.5,360.5 Z"/></g>
</svg>
