<?xml version="1.0" encoding="UTF-8"?>
<!DOCTYPE svg PUBLIC "-//W3C//DTD SVG 1.1//EN" "http://www.w3.org/Graphics/SVG/1.1/DTD/svg11.dtd">
<svg xmlns="http://www.w3.org/2000/svg" version="1.1" width="512px" height="512px" style="shape-rendering:geometricPrecision; text-rendering:geometricPrecision; image-rendering:optimizeQuality; fill-rule:evenodd; clip-rule:evenodd" xmlns:xlink="http://www.w3.org/1999/xlink">
<g><path style="opacity:0.983" fill="#fefffe" d="M 511.5,96.5 C 511.5,99.5 511.5,102.5 511.5,105.5C 498.069,121.29 482.569,134.623 465,145.5C 467.336,264.346 419.502,356.513 321.5,422C 248.749,466.568 170.749,478.902 87.5,459C 56.9868,451.238 27.6535,440.405 -0.5,426.5C -0.5,424.833 -0.5,423.167 -0.5,421.5C 41.8485,423.13 82.1819,414.964 120.5,397C 131.2,390.985 141.2,383.985 150.5,376C 116.474,370.407 87.6409,355.24 64,330.5C 60.7484,325.666 57.7484,320.666 55,315.5C 52.7689,307.457 55.6022,302.29 63.5,300C 73.2036,299.786 82.8702,299.12 92.5,298C 45.2652,282.435 19.0985,249.935 14,200.5C 15.1271,197.932 17.1271,196.598 20,196.5C 27.8925,198.797 35.7258,201.297 43.5,204C 48.7988,205.145 54.1321,205.478 59.5,205C 26.847,179.524 11.0137,146.024 12,104.5C 13.0994,93.4357 15.7661,82.769 20,72.5C 23.9361,67.6459 28.7695,66.4792 34.5,69C 93.0524,129.441 164.386,164.608 248.5,174.5C 246.417,144.835 252.25,116.835 266,90.5C 283.721,62.3777 309.221,46.5444 342.5,43C 377.247,38.7494 407.247,48.5828 432.5,72.5C 454.842,71.2893 476.009,65.6226 496,55.5C 499.19,56.2065 500.69,58.2065 500.5,61.5C 492.414,80.0979 479.747,94.9312 462.5,106C 477.529,103.702 492.362,100.202 507,95.5C 508.533,95.7728 510.033,96.1062 511.5,96.5 Z"/></g>
</svg>
